<svg>
  <defs>
  <g id="heart">
    <path fill-rule="evenodd" clip-rule="evenodd" d="M9.9986 1.01512C11.5871 0.0108614 13.6972 -0.26658 15.5201 0.31761C19.4853 1.59638 20.7163 5.9192 19.6153 9.35889C17.9164 14.7612 10.6609 18.7909 10.3532 18.9599C10.2438 19.0205 10.1227 19.0508 10.0015 19.0508C9.8804 19.0508 9.76024 19.0215 9.65082 18.9619C9.34505 18.7948 2.14232 14.8247 0.386813 9.35986C0.385836 9.35986 0.385836 9.35889 0.385836 9.35889C-0.716115 5.91822 0.51088 1.59443 4.47224 0.31761C6.33227 -0.284165 8.35935 -0.0194227 9.9986 1.01512ZM4.92162 1.71263C1.71638 2.7462 0.911412 6.19371 1.78184 8.91244C3.15146 13.1737 8.56255 16.6193 10.0006 17.4721C11.4434 16.6105 16.8936 13.1268 18.2193 8.91635C19.0897 6.19468 18.2818 2.74718 15.0717 1.71263C13.5164 1.21343 11.7023 1.51725 10.4499 2.48634C10.1881 2.68759 9.82471 2.69149 9.56095 2.49221C8.23431 1.49478 6.50128 1.20269 4.92162 1.71263ZM14.1339 3.65267C15.4654 4.08349 16.3983 5.26262 16.5126 6.65666C16.5449 7.06013 16.2449 7.41377 15.8415 7.446C15.821 7.44796 15.8014 7.44894 15.7809 7.44894C15.4029 7.44894 15.0824 7.15879 15.0512 6.77585C14.9867 5.97283 14.4494 5.29486 13.6845 5.0477C13.2986 4.92265 13.0876 4.50942 13.2117 4.1255C13.3377 3.7406 13.747 3.53154 14.1339 3.65267Z" fill="white"/>
  </g>
  <g id="chat-bubble">
    <path fill-rule="evenodd" clip-rule="evenodd" d="M10.0016 0C12.675 0 15.1874 1.03939 17.0745 2.92741C20.9752 6.82813 20.9752 13.1743 17.0745 17.075C15.1622 18.9881 12.5875 20.0005 9.97927 20.0005C8.55744 20.0005 7.1263 19.7 5.78729 19.0802C5.39275 18.9221 5.02334 18.7732 4.75814 18.7732C4.45293 18.775 4.04257 18.9165 3.64617 19.0533C2.8329 19.3324 1.8205 19.6804 1.07143 18.9342C0.325157 18.1869 0.669448 17.1773 0.946742 16.365C1.08353 15.9649 1.22404 15.5517 1.22404 15.2391C1.22404 14.9822 1.10028 14.6547 0.910452 14.1829C-0.832406 10.419 -0.0265781 5.88273 2.92967 2.92834C4.81676 1.04032 7.32822 0 10.0016 0ZM10.0025 1.39577C7.70136 1.39577 5.53977 2.29093 3.91602 3.91561C1.37199 6.45779 0.679684 10.3613 2.19177 13.6302C2.40951 14.169 2.61981 14.6938 2.61981 15.2391C2.61981 15.7834 2.43278 16.3315 2.26808 16.8154C2.13222 17.2136 1.92658 17.8147 2.05871 17.9469C2.18805 18.0809 2.79289 17.8696 3.19208 17.7329C3.67129 17.5691 4.21472 17.3811 4.75349 17.3774C5.29319 17.3774 5.80218 17.5821 6.34095 17.7989C9.64149 19.325 13.545 18.6308 16.0881 16.0886C19.4436 12.7313 19.4436 7.27013 16.0881 3.91468C14.4634 2.29 12.3028 1.39577 10.0025 1.39577ZM13.6752 9.45656C14.1888 9.45656 14.6057 9.8725 14.6057 10.3871C14.6057 10.9017 14.1888 11.3176 13.6752 11.3176C13.1615 11.3176 12.7409 10.9017 12.7409 10.3871C12.7409 9.8725 13.1532 9.45656 13.6668 9.45656H13.6752ZM9.94493 9.45656C10.4586 9.45656 10.8754 9.8725 10.8754 10.3871C10.8754 10.9017 10.4586 11.3176 9.94493 11.3176C9.43129 11.3176 9.01069 10.9017 9.01069 10.3871C9.01069 9.8725 9.42198 9.45656 9.93656 9.45656H9.94493ZM6.2143 9.45656C6.72795 9.45656 7.14482 9.8725 7.14482 10.3871C7.14482 10.9017 6.72795 11.3176 6.2143 11.3176C5.70066 11.3176 5.28007 10.9017 5.28007 10.3871C5.28007 9.8725 5.69228 9.45656 6.20593 9.45656H6.2143Z" fill="#48515B"/>
  </g>
  <g id="paper-plane">
    <path fill-rule="evenodd" clip-rule="evenodd" d="M9.03109 12.121L12.782 18.2064C12.9461 18.4731 13.2025 18.47 13.3061 18.4557C13.4097 18.4413 13.659 18.3777 13.7492 18.0751L18.4397 2.23345C18.5217 1.95344 18.371 1.76266 18.3033 1.69497C18.2376 1.62727 18.0499 1.48265 17.7781 1.55958L1.92515 6.20182C1.62463 6.29003 1.55898 6.54235 1.54462 6.64594C1.53026 6.75159 1.52616 7.01314 1.79181 7.18032L7.94694 11.0297L13.3851 5.5341C13.6836 5.23255 14.1708 5.22947 14.4734 5.52795C14.7759 5.82642 14.778 6.31465 14.4795 6.6162L9.03109 12.121ZM13.2261 20.0003C12.5123 20.0003 11.8579 19.6372 11.4722 19.0136L7.49564 12.5611L0.976394 8.48397C0.273801 8.04395 -0.0933936 7.26033 0.0204572 6.4367C0.133282 5.61308 0.698434 4.95869 1.49231 4.72586L17.3453 0.0836214C18.0745 -0.129721 18.8561 0.0723389 19.3936 0.607745C19.931 1.14828 20.131 1.93806 19.9136 2.67039L15.2231 18.511C14.9883 19.308 14.3318 19.8711 13.5102 19.9809C13.4138 19.9932 13.3205 20.0003 13.2261 20.0003Z" fill="#48515B"/>
  </g>
  <g id="hamburger">
    <path d="M0.5 2.02041H13.5C13.7762 2.02041 14 1.81941 14 1.57143V0.44898C14 0.201003 13.7762 0 13.5 0H0.5C0.223844 0 0 0.201003 0 0.44898V1.57143C0 1.81941 0.223844 2.02041 0.5 2.02041ZM0.5 6.5102H13.5C13.7762 6.5102 14 6.3092 14 6.06122V4.93878C14 4.6908 13.7762 4.4898 13.5 4.4898H0.5C0.223844 4.4898 0 4.6908 0 4.93878V6.06122C0 6.3092 0.223844 6.5102 0.5 6.5102ZM0.5 11H13.5C13.7762 11 14 10.799 14 10.551V9.42857C14 9.18059 13.7762 8.97959 13.5 8.97959H0.5C0.223844 8.97959 0 9.18059 0 9.42857V10.551C0 10.799 0.223844 11 0.5 11Z" fill="#4F94EB"/>
  </g>
  <g id="new-post">
    <path d="M18 12.1267V23.8733" stroke="#DCE6F2" stroke-width="3" stroke-linecap="round" stroke-linejoin="round"/>
    <path d="M23.8791 17.9999H12.1204" stroke="#DCE6F2" stroke-width="3" stroke-linecap="round" stroke-linejoin="round"/>
    <path fill-rule="evenodd" clip-rule="evenodd" d="M2 18C2 6.00086 6.00086 2 18 2C29.9991 2 34 6.00086 34 18C34 29.9991 29.9991 34 18 34C6.00086 34 2 29.9991 2 18Z" stroke="#DCE6F2" stroke-width="3" stroke-linecap="round" stroke-linejoin="round"/>
  </g>
  </defs>
</svg>