<svg width="14" height="11" viewBox="0 0 14 11" fill="none" xmlns="http://www.w3.org/2000/svg">
<path d="M0.5 2.02041H13.5C13.7762 2.02041 14 1.81941 14 1.57143V0.44898C14 0.201003 13.7762 0 13.5 0H0.5C0.223844 0 0 0.201003 0 0.44898V1.57143C0 1.81941 0.223844 2.02041 0.5 2.02041ZM0.5 6.5102H13.5C13.7762 6.5102 14 6.3092 14 6.06122V4.93878C14 4.6908 13.7762 4.4898 13.5 4.4898H0.5C0.223844 4.4898 0 4.6908 0 4.93878V6.06122C0 6.3092 0.223844 6.5102 0.5 6.5102ZM0.5 11H13.5C13.7762 11 14 10.799 14 10.551V9.42857C14 9.18059 13.7762 8.97959 13.5 8.97959H0.5C0.223844 8.97959 0 9.18059 0 9.42857V10.551C0 10.799 0.223844 11 0.5 11Z" fill="#4F94EB"/>
</svg>
