<svg width="20" height="20" viewBox="0 0 20 20" fill="none" xmlns="http://www.w3.org/2000/svg">
<path fill-rule="evenodd" clip-rule="evenodd" d="M9.03109 12.121L12.782 18.2064C12.9461 18.4731 13.2025 18.47 13.3061 18.4557C13.4097 18.4413 13.659 18.3777 13.7492 18.0751L18.4397 2.23345C18.5217 1.95344 18.371 1.76266 18.3033 1.69497C18.2376 1.62727 18.0499 1.48265 17.7781 1.55958L1.92515 6.20182C1.62463 6.29003 1.55898 6.54235 1.54462 6.64594C1.53026 6.75159 1.52616 7.01314 1.79181 7.18032L7.94694 11.0297L13.3851 5.5341C13.6836 5.23255 14.1708 5.22947 14.4734 5.52795C14.7759 5.82642 14.778 6.31465 14.4795 6.6162L9.03109 12.121ZM13.2261 20.0003C12.5123 20.0003 11.8579 19.6372 11.4722 19.0136L7.49564 12.5611L0.976394 8.48397C0.273801 8.04395 -0.0933936 7.26033 0.0204572 6.4367C0.133282 5.61308 0.698434 4.95869 1.49231 4.72586L17.3453 0.0836214C18.0745 -0.129721 18.8561 0.0723389 19.3936 0.607745C19.931 1.14828 20.131 1.93806 19.9136 2.67039L15.2231 18.511C14.9883 19.308 14.3318 19.8711 13.5102 19.9809C13.4138 19.9932 13.3205 20.0003 13.2261 20.0003Z" fill="#48515B"/>
</svg>
