<svg width="154" height="18" viewBox="0 0 154 18" fill="none" xmlns="http://www.w3.org/2000/svg">
<path d="M0.760437 11.9936H1.94361V9.21903H4.9701V11.9936H6.15646V5.46222H4.9701V8.2272H1.94361V5.46222H0.760437V11.9936Z" fill="#DCE6F2"/>
<path d="M23.8778 11.9936H28.1513V11.0018H25.061V9.21903H27.9057V8.2272H25.061V6.45404H28.1257V5.46222H23.8778V11.9936Z" fill="#DCE6F2"/>
<path d="M45.7674 11.9936H49.8271V11.0018H46.9505V5.46222H45.7674V11.9936Z" fill="#DCE6F2"/>
<path d="M109.126 8.29946C108.925 6.8484 107.809 6.00647 106.361 6.00647C104.654 6.00647 103.369 7.25023 103.369 9.36144C103.369 11.4695 104.639 12.7164 106.361 12.7164C107.914 12.7164 108.944 11.7118 109.126 10.4649L107.933 10.4585C107.783 11.2239 107.158 11.6544 106.377 11.6544C105.318 11.6544 104.559 10.8603 104.559 9.36144C104.559 7.88806 105.311 7.06845 106.38 7.06845C107.174 7.06845 107.796 7.51812 107.933 8.29946H109.126Z" fill="#DCE6F2"/>
<path d="M132.13 9.36144C132.13 7.25023 130.842 6.00647 129.129 6.00647C127.413 6.00647 126.128 7.25023 126.128 9.36144C126.128 11.4695 127.413 12.7164 129.129 12.7164C130.842 12.7164 132.13 11.4727 132.13 9.36144ZM130.94 9.36144C130.94 10.8476 130.194 11.6544 129.129 11.6544C128.067 11.6544 127.318 10.8476 127.318 9.36144C127.318 7.87531 128.067 7.06845 129.129 7.06845C130.194 7.06845 130.94 7.87531 130.94 9.36144Z" fill="#DCE6F2"/>
<path d="M147.15 6.09577V12.6271H148.285V8.13044H148.346L150.151 12.608H150.999L152.804 8.14H152.865V12.6271H154V6.09577H152.552L150.613 10.8284H150.537L148.598 6.09577H147.15Z" fill="#DCE6F2"/>
<path fill-rule="evenodd" clip-rule="evenodd" d="M82.3651 6.77919C82.3976 6.52623 82.4145 6.26832 82.4145 6.00649C82.4145 2.69992 79.7339 0.0194092 76.4274 0.0194092C73.1208 0.0194092 70.4403 2.69992 70.4403 6.00649C70.4403 6.26832 70.4571 6.52623 70.4897 6.77919C68.673 7.80717 67.4468 9.75717 67.4468 11.9936C67.4468 15.3001 70.1273 17.9806 73.4338 17.9806C74.5243 17.9806 75.5468 17.6891 76.4274 17.1797C77.308 17.6891 78.3304 17.9806 79.4209 17.9806C82.7275 17.9806 85.408 15.3001 85.408 11.9936C85.408 9.75717 84.1818 7.80717 82.3651 6.77919ZM79.3715 11.2209C79.4041 11.4738 79.4209 11.7317 79.4209 11.9936C79.4209 14.2096 78.2169 16.1445 76.4274 17.1797C74.6378 16.1445 73.4338 14.2096 73.4338 11.9936C73.4338 11.7317 73.4506 11.4738 73.4832 11.2209C74.3526 11.7128 75.3572 11.9936 76.4274 11.9936C77.4976 11.9936 78.5022 11.7128 79.3715 11.2209ZM76.4274 6.80745C77.308 6.29804 78.3304 6.00649 79.4209 6.00649C80.4911 6.00649 81.4957 6.28727 82.3651 6.77919C82.1192 8.68685 80.9756 10.3132 79.3715 11.2209C79.1282 9.33284 78.0055 7.72033 76.4274 6.80745ZM76.4274 6.80745C74.8493 7.72033 73.7265 9.33284 73.4832 11.2209C71.8792 10.3132 70.7355 8.68685 70.4897 6.77919C71.3591 6.28727 72.3637 6.00649 73.4338 6.00649C74.5243 6.00649 75.5468 6.29804 76.4274 6.80745Z" fill="#4F94EB"/>
</svg>
